<?xml version="1.0" encoding="utf-8"?>
<!-- Generator: Adobe Illustrator 25.2.0, SVG Export Plug-In . SVG Version: 6.00 Build 0)  -->
<svg version="1.1" id="Layer_1" xmlns="http://www.w3.org/2000/svg" xmlns:xlink="http://www.w3.org/1999/xlink" x="0px" y="0px"
	 width="90.5px" height="90.5px" viewBox="0 0 90.5 90.5" style="enable-background:new 0 0 90.5 90.5;" xml:space="preserve">
<style type="text/css">
	.st0{fill:#E30613;}
</style>
<g id="Group_255" transform="translate(0 0)">
	<path id="Path_62" class="st0" d="M45.2,53.9c-4.8,0-8.7-3.9-8.7-8.6c0-4.8,3.9-8.7,8.6-8.7c4.8,0,8.7,3.9,8.7,8.6c0,0,0,0,0,0
		C53.9,50,50,53.9,45.2,53.9C45.3,53.9,45.3,53.9,45.2,53.9z"/>
	<path id="Path_60" class="st0" d="M66.2,33.1c-0.1-4.9-4-8.8-8.8-8.9c-4.1-0.2-8.1-0.3-12.2-0.4c-4.1,0.1-8.1,0.2-12.2,0.4
		c-4.2,0.1-7.7,3.1-8.5,7.2c-0.4,2.1-0.6,4.3-0.6,6.5c0,6.5,0,13,0.3,19.5c0,4.2,3,7.8,7.1,8.5c2.1,0.4,4.2,0.6,6.3,0.6
		c6.6,0,13.1,0,19.7-0.2c4.2,0,7.8-3.1,8.5-7.2c0.4-2.1,0.6-4.2,0.6-6.4C66.5,46.1,66.5,39.6,66.2,33.1z M45.2,58.5
		c-7.3,0-13.3-6-13.3-13.3c0-7.3,6-13.3,13.3-13.3c7.3,0,13.3,6,13.3,13.3c0,0,0,0,0,0c0,7.3-5.9,13.2-13.2,13.2
		C45.3,58.5,45.2,58.5,45.2,58.5L45.2,58.5z M59.1,34.5c-1.7,0-3.1-1.4-3.1-3.1c0-1.7,1.4-3.1,3.1-3.1c1.7,0,3.1,1.4,3.1,3.1
		c0,0,0,0,0,0C62.2,33.1,60.8,34.4,59.1,34.5L59.1,34.5z"/>
	<path id="Path_59" class="st0" d="M41.9,0h6.5c0.3,0.1,0.6,0.1,0.9,0.2c1.5,0.2,3,0.3,4.5,0.6c10.9,2,20.6,8,27.3,16.8
		c8.5,11.1,11.3,23.6,8.4,37.2c-2.1,10.4-8,19.7-16.5,26.2c-10.7,8.3-22.9,11.1-36.2,8.7c-9.6-1.7-18.3-6.6-24.8-13.8
		C5.8,69.3,1.8,61,0.5,52.1C0.3,51,0.2,49.8,0,48.6v-6.7c0.1-1,0.3-2,0.4-2.9c2.8-19.4,17.7-34.8,37-38.2C38.9,0.4,40.4,0.2,41.9,0z
		 M71,45.2L71,45.2c-0.2-4.2,0.1-8.4-0.2-12.6c-0.2-3.4-1.7-6.7-4.1-9.1c-2.8-2.6-6.5-4.1-10.3-4c-8-0.4-16-0.4-23.9,0.2
		c-2.8,0.2-5.4,1.2-7.6,2.9c-3.9,3-5.3,7.2-5.4,11.8c-0.2,5.8-0.2,11.7-0.1,17.5c0,2.4,0.1,4.9,0.5,7.3c0.6,5.2,4.4,9.6,9.4,11
		c2.5,0.7,5,1,7.6,0.9c7,0,14-0.1,21-0.3c2.8-0.1,5.5-1.1,7.7-2.9c3.8-3,5.3-7.1,5.4-11.8C71.1,52.5,71,48.9,71,45.2z"/>
</g>
</svg>
