<svg xmlns="http://www.w3.org/2000/svg" width="90.5" height="90.493" viewBox="0 0 90.5 90.493">
  <g id="Group_255" data-name="Group 255" transform="translate(0 0)">
    <path id="Path_62" data-name="Path 62" d="M1881.632,4538.241a8.656,8.656,0,1,1,8.646-8.622A8.613,8.613,0,0,1,1881.632,4538.241Z" transform="translate(-1836.392 -4484.355)" fill="#e95254"/>
    <path id="Path_60" data-name="Path 60" d="M1844.1,4458a8.99,8.99,0,0,0-8.828-8.861c-4.052-.246-8.115-.3-12.175-.444-4.063.142-8.126.207-12.178.445a8.739,8.739,0,0,0-8.47,7.187,30.839,30.839,0,0,0-.569,6.48c0,6.5.03,13.01.257,19.508a8.627,8.627,0,0,0,7.149,8.487,29.806,29.806,0,0,0,6.3.565c6.562,0,13.127-.022,19.683-.247a8.674,8.674,0,0,0,8.531-7.217,30.375,30.375,0,0,0,.551-6.395C1844.354,4471,1844.348,4464.5,1844.1,4458Zm-21,25.424a13.287,13.287,0,1,1,13.3-13.249A13.215,13.215,0,0,1,1823.1,4483.425Zm13.907-24.059a3.1,3.1,0,1,1,3.074-3.1A3.1,3.1,0,0,1,1837.011,4459.366Z" transform="translate(-1777.893 -4424.909)" fill="#e95254"/>
    <path id="Path_59" data-name="Path 59" d="M1708.235,4314.325h6.537c.286.059.569.134.857.173,1.484.2,2.987.3,4.452.594a44.278,44.278,0,0,1,27.295,16.83c8.471,11.065,11.251,23.561,8.413,37.19a43.409,43.409,0,0,1-16.465,26.152c-10.734,8.287-22.906,11.146-36.217,8.723a43.691,43.691,0,0,1-24.753-13.766,44.227,44.227,0,0,1-11.47-23.758c-.182-1.183-.348-2.367-.52-3.551V4356.2c.132-.982.253-1.967.4-2.947a45.368,45.368,0,0,1,36.968-38.236C1705.224,4314.747,1706.732,4314.553,1708.235,4314.325Zm29.152,45.229h0c-.153-4.2.093-8.42-.2-12.615a13.7,13.7,0,0,0-4.123-9.11,14.851,14.851,0,0,0-10.262-4.033,209.757,209.757,0,0,0-23.916.151,13.959,13.959,0,0,0-7.638,2.9c-3.867,3-5.307,7.172-5.432,11.845-.156,5.825-.176,11.656-.146,17.484a45.441,45.441,0,0,0,.508,7.295,13.131,13.131,0,0,0,9.43,11.022,23.777,23.777,0,0,0,7.584.918c7-.041,14.006-.065,21-.261a13.1,13.1,0,0,0,7.723-2.891c3.837-2.979,5.27-7.114,5.436-11.755C1737.492,4366.857,1737.387,4363.2,1737.387,4359.554Z" transform="translate(-1666.362 -4314.326)" fill="#e95254"/>
  </g>
</svg>
