<svg xmlns="http://www.w3.org/2000/svg" width="90.292" height="90.19" viewBox="0 0 90.292 90.19">
  <path id="Path_63" data-name="Path 63" d="M2367.844,4421.841H2361.5c-.255-.057-.507-.134-.765-.168-1.509-.2-3.036-.317-4.527-.609a45.226,45.226,0,0,1-36.131-37.441c-.181-1.179-.346-2.361-.519-3.542v-6.7c.132-.98.253-1.961.4-2.939a43.783,43.783,0,0,1,10.517-23.107c10.377-11.726,23.474-16.85,39.047-15.468a43.255,43.255,0,0,1,17.809,5.821,45.259,45.259,0,0,1,21.884,46.458,44.593,44.593,0,0,1-14.005,25.786,44.021,44.021,0,0,1-22.591,11.21C2371.032,4421.426,2369.434,4421.612,2367.844,4421.841Zm23.292-22.068v-1.1c0-5.667.012-11.333-.009-17a35.2,35.2,0,0,0-.2-4.038c-.643-5.384-3.553-10.993-11.32-11.579-4.228-.319-7.805.987-10.365,4.544-.156.218-.335.419-.672.84v-4.561H2357.7v32.875h10.881v-1.12q0-8.589,0-17.177a6.807,6.807,0,0,1,1.558-4.731,5.743,5.743,0,0,1,5.953-1.91,4.867,4.867,0,0,1,3.723,4.021,11.508,11.508,0,0,1,.349,2.6c.035,5.784.025,11.568.03,17.353,0,.314,0,.629,0,.985Zm-39.671.017v-32.941h-10.807v32.941Zm-11.492-43.209c.01,3.313,2.562,5.683,6.1,5.661,3.629-.021,6.217-2.4,6.184-5.694-.034-3.364-2.6-5.745-6.165-5.714C2342.472,4350.863,2339.963,4353.222,2339.973,4356.581Z" transform="translate(-2319.556 -4331.651)" fill="#e95254"/>
</svg>
