<?xml version="1.0" encoding="UTF-8"?><svg id="a" xmlns="http://www.w3.org/2000/svg" viewBox="0 0 1280 561"><defs><style>.b{fill:#f0cfe5 ;}.c{fill:#e30613;}</style></defs><rect class="b" width="1280" height="561" transform="translate(30,40)" /><path class="c" d="M0,149.6v109.06S186.81,222,272,0h-123.42S109,105,0,149.6Z"/><path class="c" d="M891,0s-62,177,46,208,143-83,143-83c0,0,49.28-101,76.14-125h111.22s-60.36,39-117.36,170-202,149-279,97S774.73,117,799.86,0h91.14Z"/><path class="c" transform="translate(-100,70)" d="M202.39,561s59.61-172.65,211.61-165.65,188,119.65,196,165.65h-94s-13.5-97.15-140.5-73.15c0,0-48.82,10.3-74.91,73.15h-98.2Z"/><path class="c" d="M900,561h85.02s2.98-87,93.98-99,141,16,201-18v-123s-5,58-101,56-171-11-233,53c-47.73,49.27-46,131-46,131Z"/></svg>