<?xml version="1.0" encoding="utf-8"?>
<!-- Generator: Adobe Illustrator 26.1.0, SVG Export Plug-In . SVG Version: 6.00 Build 0)  -->
<svg version="1.1" id="Layer_1" xmlns="http://www.w3.org/2000/svg" xmlns:xlink="http://www.w3.org/1999/xlink" x="0px" y="0px"
	 viewBox="0 0 1280 588" style="enable-background:new 0 0 1280 588;" xml:space="preserve">
<style type="text/css">
	.st0{fill:#1C3887;}
	.st1{fill:#5CC0E1;}
</style>
<rect x="0" class="st0" width="1280" height="588"/>
<path class="st1" d="M0,196.23v102.09c0,0,151,5.67,292-143.33c0,0,72.43-90,86.71-155H246.73C246.73,0,190.5,176.96,0,196.23z"/>
<path class="st1" d="M773.52,0c0,0-53.02,201.5,89.98,278.5s236-47,259-97S1220.39,5.5,1255.95,0h-117.28
	c0,0-59.17,86.5-70.17,116.5s-59,127-146,99S833.51,78.5,857,0H773.52z"/>
<path class="st1" d="M219.08,588.5H96.64c0,0,51.86-42.5,106.86-145.5s81-145,174-171s177,37,199,72s49,79,46,186
	c0,0-4.52,58-8.26,58.5s-89.67,0-89.67,0s29.12-106.9-2.47-161.2C490.5,373,455.5,345,382.5,364c0,0-37,8-82,85
	S230.66,577,219.08,588.5z"/>
<path class="st1" d="M968.5,588h-85.4c0,0-16.6-136.5,110.4-194.5c0,0,39-23,162-11S1280,265.37,1280,265.37l-1.55,176.8
	c0,0-19.95,29.33-143.95,22.33S984.5,481.5,968.5,588z"/>
</svg>
