<?xml version="1.0" encoding="utf-8"?>
<!-- Generator: Adobe Illustrator 25.2.0, SVG Export Plug-In . SVG Version: 6.00 Build 0)  -->
<svg version="1.1" id="Layer_1" xmlns="http://www.w3.org/2000/svg" xmlns:xlink="http://www.w3.org/1999/xlink" x="0px" y="0px"
	 width="90.3px" height="90.2px" viewBox="0 0 90.3 90.2" style="enable-background:new 0 0 90.3 90.2;" xml:space="preserve">
<style type="text/css">
	.st0{fill:#E30613;}
</style>
<path id="Path_63" class="st0" d="M48.3,90.2h-6.3c-0.3-0.1-0.5-0.1-0.8-0.2c-1.5-0.2-3-0.3-4.5-0.6C17.9,85.8,3.5,70.8,0.5,52
	c-0.2-1.2-0.3-2.4-0.5-3.5v-6.7c0.1-1,0.3-2,0.4-2.9c1.1-8.6,4.8-16.6,10.5-23.1C21.3,4,34.4-1.2,50,0.2C56.3,0.8,62.3,2.8,67.8,6
	C84,15.5,92.7,34,89.7,52.5c-1.6,9.9-6.6,19-14,25.8c-6.3,5.9-14.1,9.8-22.6,11.2C51.5,89.8,49.9,90,48.3,90.2z M71.6,68.1V67
	c0-5.7,0-11.3,0-17c0-1.3-0.1-2.7-0.2-4c-0.6-5.4-3.6-11-11.3-11.6c-4.2-0.3-7.8,1-10.4,4.5c-0.2,0.2-0.3,0.4-0.7,0.8v-4.6H38.1
	v32.9H49V67c0-5.7,0-11.5,0-17.2c-0.1-1.7,0.5-3.4,1.6-4.7c1.4-1.8,3.8-2.5,6-1.9c1.9,0.4,3.4,2,3.7,4c0.2,0.9,0.3,1.7,0.3,2.6
	c0,5.8,0,11.6,0,17.4c0,0.3,0,0.6,0,1L71.6,68.1z M31.9,68.1V35.2H21.1v32.9H31.9z M20.4,24.9c0,3.3,2.6,5.7,6.1,5.7
	c3.6,0,6.2-2.4,6.2-5.7c0-3.4-2.6-5.7-6.2-5.7C22.9,19.2,20.4,21.6,20.4,24.9L20.4,24.9z"/>
</svg>
