<?xml version="1.0" standalone="no"?>
<svg version="1.0" xmlns="http://www.w3.org/2000/svg"
 width="1280.000000pt" height="1283.000000pt" viewBox="0 0 1280.000000 1283.000000"
 preserveAspectRatio="xMidYMid meet">
<g transform="translate(0.000000,1283.000000) scale(0.100000,-0.100000)"
fill="#000000" stroke="none">
<path d="M1675 9724 c-95 -15 -200 -40 -275 -66 -439 -155 -754 -522 -847
-986 -21 -107 -24 -353 -4 -462 30 -169 107 -359 207 -512 68 -105 4758 -4799
4884 -4889 229 -164 471 -242 755 -242 276 -1 504 67 738 219 105 68 4841
4805 4910 4911 103 156 178 342 208 513 20 109 17 355 -4 462 -93 464 -408
831 -847 986 -153 54 -237 67 -430 67 -133 0 -195 -5 -260 -19 -183 -40 -368
-122 -514 -229 -56 -41 -652 -629 -1938 -1915 l-1858 -1857 -1862 1861 c-1106
1104 -1891 1882 -1933 1912 -137 101 -332 188 -510 227 -68 15 -358 28 -420
19z" fill="#E30613" />
</g>
</svg>
