<?xml version="1.0" encoding="utf-8"?>
<svg xmlns="http://www.w3.org/2000/svg" width="2517.742" height="1470.961" viewBox="0 0 2517.742 1470.961">
  <g id="Group_342" data-name="Group 342" transform="translate(73.062 -2131.732)">
    <g id="Group_23" data-name="Group 23" transform="translate(-5.279 2210.732)">
      <path id="Path_64" data-name="Path 64" d="M144.13,186.805c-25.419,32.556-52.265,143.629,34.975,212.429,22.6,17.8,61.465,38.068,102.626,59.521,57.816,30.137,117.536,61.306,162.108,99.81V727.732c-19.232-23.595-44.1-49.41-75.859-77.525C334,620.189,279.471,591.757,226.73,564.237c-46.237-24.11-89.9-46.872-121.3-71.616C-34.315,382.421-15.916,198.583,50.268,113.682,153.013-18.169,335.7-8.374,443.839,12.048v121.5a597.718,597.718,0,0,0-98.779-14.077C250.325,114.555,182.754,137.2,144.13,186.805Z" transform="translate(1646.73 364.839) rotate(-90)" fill="#5dc0e1"/>
      <path id="Path_174" data-name="Path 174" d="M140.213,181.729C115.485,213.4,89.369,321.454,174.238,388.385c21.989,17.321,59.794,37.034,99.837,57.9,56.245,29.318,114.342,59.64,157.7,97.1V707.955c-18.71-22.953-42.9-48.067-73.8-75.418-33.06-29.2-86.1-56.862-137.411-83.635-44.981-23.455-87.454-45.6-118.007-69.67C-33.383,372.028-15.483,193.186,48.9,110.593,148.854-17.675,326.578-8.147,431.777,11.72v118.2a581.475,581.475,0,0,0-96.1-13.695C243.522,111.442,177.787,133.469,140.213,181.729Z" transform="translate(640.172 739.765) rotate(90)" fill="#5dc0e1"/>
      <path id="Path_65" data-name="Path 65" d="M856.633,194.815V369.807C735.651,431.6,608.646,408.464,513.589,306.138c-4.861-5.19-9.846-10.628-14.956-16.165-45.825-49.729-108.559-117.8-158.5-134.21-12.838-4.2-127.836-37.47-215.747,86.458-39.095,55.117-39.593,137.72-33.2,197.336,1.454,13.3,3.282,26.1,5.318,38.162H0V197.336a309.433,309.433,0,0,1,29.124-50.718C133.9-1.087,279.935-17.8,373.247,12.8,451.976,38.657,524.432,117.255,582.638,180.43c4.986,5.388,9.846,10.678,14.541,15.72,84.172,90.61,175.573,58.133,222.561,30.7C833.865,218.592,846.08,207.569,856.633,194.815Z" transform="translate(1506.43 1054.163) rotate(-45)" fill="#5dc0e1"/>
      <path id="Path_66" data-name="Path 66" d="M632.55,65.789c-24.774,68.588-62.035,143.347-118.16,211.384-64.813,78.57-154.956,148.042-280.044,187.894a691.615,691.615,0,0,1-146.9,29.56V348.846A456.3,456.3,0,0,0,173.907,328.8c120.817-41,210.685-129.344,267.78-263.013Z" transform="translate(-85.801 -144.789)" fill="#5dc0e1"/>
    </g>
  </g>
</svg>
