<svg xmlns="http://www.w3.org/2000/svg" width="92.052" height="91" viewBox="0 0 92.052 91">
  <g id="Group_2" data-name="Group 2" transform="translate(-653.765 -410.158)">
    <path id="Path_18" data-name="Path 18" d="M653.765,443.021h7.211c12.686.006,25.373-.007,38.058.031a41.877,41.877,0,0,1,9.659.887c3.8.909,5.663,3.087,5.944,7.011a16.485,16.485,0,0,1-.453,5.28c-.673,2.623-2.55,4.151-4.91,5.217a16.07,16.07,0,0,1-5.336,1.135c-4.888.423-9.785.512-14.69.5-11.579-.033-23.159-.011-34.74-.012-.248,0-.5-.012-.744-.018Zm7.787,12.725c.234,0,.42,0,.606,0q3.631-.037,7.263-.076,7.719-.078,15.439-.155,7.748-.086,15.495-.2a9.127,9.127,0,0,0,3.747-.633,2.047,2.047,0,0,0,1.271-1.577,2.912,2.912,0,0,0-2.221-3.539,10.8,10.8,0,0,0-2.652-.333c-3.354-.014-6.709.047-10.065.059q-13.155.048-26.31.078c-.85,0-1.7,0-2.574,0Z" transform="translate(0 -8.024)" fill="#fff"/>
    <path id="Path_19" data-name="Path 19" d="M697.835,410.158v3.672c-1.136.039-2.212.089-3.289.109q-5.145.094-10.291.168c-1.79.026-3.581,0-5.369.075a4.186,4.186,0,0,0-1.738.479,2.042,2.042,0,0,0-.8,1.032.821.821,0,0,0,.593,1.17,8.292,8.292,0,0,0,1.843.323c2.111.132,4.225.215,6.338.325,1.921.1,3.849.137,5.759.342a21.877,21.877,0,0,1,3.9.813c2.386.713,2.958,2.582,2.648,4.558-.53,3.382-2.634,5.382-5.866,6.273a36.555,36.555,0,0,1-8.748,1.245c-5.505.148-11.015.18-16.523.226-4.175.036-8.351.018-12.526.024v-5.952c.515,0,1.029.007,1.544,0q8.149-.1,16.3-.215c.99-.015,1.982-.064,2.97-.137.837-.061,1.181-.347,1.287-.962a1.346,1.346,0,0,0-1.459-1.753c-2.8-.091-5.6-.137-8.4-.261-2.473-.109-4.957-.184-7.41-.484a4.732,4.732,0,0,1-4.546-4.308c-.466-2.809.524-4.634,3.146-5.756a10.716,10.716,0,0,1,1.563-.537c.732-.187,1.48-.314,2.221-.466Z" transform="translate(0 0)" fill="#fff"/>
    <path id="Path_20" data-name="Path 20" d="M653.765,475.43c.284.019.568.054.853.054q6.549.006,13.1,0h.7V485.78h18.507c.1,3.374.2,6.753.3,10.2H686.3q-15.93,0-31.86-.005c-.227,0-.453-.035-.679-.054Z" transform="translate(0 -15.937)" fill="#fff"/>
    <path id="Path_21" data-name="Path 21" d="M762.4,410.158q1.742,5.882,3.487,11.765,1.269,4.269,2.549,8.533c.048.162.081.328.126.516h-6.7l-1.766-6.2c-1.572,0-3.133-.009-4.694.019-.116,0-.287.254-.333.418q-.745,2.667-1.45,5.345c-.069.262-.123.446-.464.444-1.849-.014-3.7-.007-5.611-.007.041-.257.061-.454.105-.646q2.28-9.9,4.565-19.808c.029-.128.077-.252.116-.378Z" transform="translate(-22.896 0)" fill="#fff"/>
    <path id="Path_22" data-name="Path 22" d="M740.3,410.158c.033.546.079,1.092.092,1.639.017.664,0,1.327,0,2.119h-7.735v17.058h-7.8c.076-5.646.153-11.274.231-17.04h-8.031v-3.775Z" transform="translate(-15.457 0)" fill="#fff"/>
    <path id="Path_23" data-name="Path 23" d="M724.338,524.858v-4.183c.159-.012.308-.034.455-.033,3.013.011,6.027.041,9.041.027a12.742,12.742,0,0,0,2.094-.239,1.08,1.08,0,0,0,.97-.851,1.117,1.117,0,0,0-.508-1.246,4.219,4.219,0,0,0-1.582-.538c-1.891-.2-3.8-.284-5.684-.515a8.96,8.96,0,0,1-2.165-.7c-2.537-1.014-3.568-5.273-1.405-7.385a6,6,0,0,1,3.692-1.62,108.891,108.891,0,0,1,12.114-.345,1.934,1.934,0,0,1,.334.058v4.046c-.22.011-.405.028-.59.028-2.785,0-5.57-.026-8.355-.006a10.194,10.194,0,0,0-2.206.246,1.14,1.14,0,0,0-.761.7,1.2,1.2,0,0,0,.457.99,4.375,4.375,0,0,0,1.643.559c1.943.271,3.908.4,5.841.722a5,5,0,0,1,4.138,6.26c-.563,2.494-1.808,3.606-4.382,3.921a2.007,2.007,0,0,0-.322.1h-12.82Z" transform="translate(-17.232 -23.7)" fill="#fff"/>
    <path id="Path_24" data-name="Path 24" d="M653.765,507.233q3.92.009,7.839.018,4.636,0,9.272,0h.9a3.484,3.484,0,0,1,.052.465c-.032,1.048-.044,2.1-.125,3.142a1.4,1.4,0,0,1-.4.86c-3.162,2.814-6.346,5.6-9.524,8.4-.155.136-.3.277-.564.516h10.328v4.112H653.765v-3.09a1.721,1.721,0,0,0,.19-.125q5.624-4.907,11.246-9.818a2.767,2.767,0,0,0,.268-.34h-.661l-11.043-.019Z" transform="translate(0 -23.703)" fill="#fff"/>
    <path id="Path_25" data-name="Path 25" d="M725.246,530.555h0Z" transform="translate(-17.453 -29.397)" fill="#fff"/>
    <path id="Path_26" data-name="Path 26" d="M702.108,495.943c.819-1.918,1.6-3.738,2.373-5.558q3.061-7.173,6.113-14.351a.8.8,0,0,1,.87-.6q7.5.033,14.993,0a.774.774,0,0,1,.837.559q4.276,9.666,8.586,19.318c.09.2.167.409.253.622-1.22,0-2.376.009-3.532,0-1.487-.015-2.974-.06-4.461-.063a.719.719,0,0,1-.743-.464c-1.1-2.2-2.227-4.381-3.323-6.58a.691.691,0,0,0-.738-.453q-4.347.073-8.694.092c-.375,0-.489.19-.622.454-1.107,2.194-2.227,4.381-3.319,6.582a.744.744,0,0,1-.783.484c-2.384-.019-4.769-.008-7.153-.01C702.58,495.978,702.4,495.959,702.108,495.943Z" transform="translate(-11.804 -15.939)" fill="#fff"/>
    <path id="Path_27" data-name="Path 27" d="M768.495,495.966a.682.682,0,0,1-.126.051c-4.763-.031-9.527-.033-14.289-.12a10.728,10.728,0,0,1-2.726-.581,4.434,4.434,0,0,1-3.229-3.562,6.572,6.572,0,0,1,2.677-7.314,16.288,16.288,0,0,1,1.956-.879c-.164-.09-.361-.193-.553-.3a4.108,4.108,0,0,1-.379-6.444,6.1,6.1,0,0,1,3.23-1.02c1.726-.146,3.459-.252,5.19-.291,2.458-.056,4.917-.023,7.376-.059.524-.008.692.154.693.679.008,3.354.036,6.708.069,10.062.03,3.106.074,6.212.111,9.319C768.5,495.651,768.495,495.8,768.495,495.966Z" transform="translate(-22.987 -15.94)" fill="#fff"/>
    <path id="Path_28" data-name="Path 28" d="M739.334,462.861v-4.747c.545,0,1.072,0,1.6,0,5.341-.012,10.681-.009,16.021-.054a8.083,8.083,0,0,0,2.231-.406,1.194,1.194,0,0,0,.974-1.251,1.124,1.124,0,0,0-1.082-1.014c-1.3-.148-2.614-.24-3.923-.271-2.838-.066-5.681,0-8.515-.147a17.218,17.218,0,0,1-3.908-.761c-3.47-1.015-4.02-4.358-2.746-6.88a5.267,5.267,0,0,1,2.421-2.415,14.757,14.757,0,0,1,6.615-1.56c5.684-.02,11.368-.007,17.052-.005.148,0,.3.02.471.032v4.583h-.814c-5.684-.013-11.367-.041-17.051-.02a6.844,6.844,0,0,0-2.1.429,1.283,1.283,0,0,0-.851,1.408,1.11,1.11,0,0,0,1.04,1.051,21.2,21.2,0,0,0,2.948.288c2.725.064,5.453.02,8.176.122a19.289,19.289,0,0,1,5.7,1.082c2.794.984,3.552,3.09,2.9,5.851a5.328,5.328,0,0,1-4.062,3.925,19.159,19.159,0,0,1-5.528.773c-5.7.025-11.406.009-17.109.008C739.66,462.882,739.529,462.871,739.334,462.861Z" transform="translate(-20.893 -8.103)" fill="#fff"/>
    <path id="Path_29" data-name="Path 29" d="M685.99,524.719V507.311h15.147V511.4H690.8v3.034h5.452v2.781h-5.406v3.437h10.1v4.066Z" transform="translate(-7.868 -23.722)" fill="#fff"/>
    <path id="Path_30" data-name="Path 30" d="M769.474,507.316v4.069h-6.9v13.348h-4.92V511.406h-6.311v-4.09Z" transform="translate(-23.824 -23.723)" fill="#fff"/>
    <path id="Path_31" data-name="Path 31" d="M716.848,526.729H712.1V515.44h4.75Z" transform="translate(-14.243 -25.706)" fill="#fff"/>
    <path id="Path_32" data-name="Path 32" d="M712.1,509.345a2.336,2.336,0,1,1,2.326,2.333A2.372,2.372,0,0,1,712.1,509.345Z" transform="translate(-14.243 -23.63)" fill="#fff"/>
  </g>
</svg>
